<?xml version="1.0" encoding="us-ascii" standalone="no"?><svg xmlns="http://www.w3.org/2000/svg" xmlns:xlink="http://www.w3.org/1999/xlink" contentStyleType="text/css" height="328px" preserveAspectRatio="none" style="width:432px;height:328px;background:#FFFFFF;" version="1.1" viewBox="0 0 432 328" width="432px" zoomAndPan="magnify"><defs/><g><!--class Figura--><g id="elem_Figura"><rect codeLine="18" fill="#F1F1F1" height="118.4375" id="Figura" rx="2.5" ry="2.5" style="stroke:#181818;stroke-width:0.5;" width="154" x="139" y="7"/><ellipse cx="191.25" cy="23" fill="#A9DCDF" rx="11" ry="11" style="stroke:#181818;stroke-width:1.0;"/><path d="M193.4375,24.7656 L189.2969,24.7656 L188.875,25.7969 L189.2969,25.7969 Q189.9063,25.7969 190.1719,26.0313 Q190.4375,26.2656 190.4375,26.6563 Q190.4375,27.0313 190.1719,27.2656 Q189.9063,27.5 189.2969,27.5 L187,27.5 Q186.3906,27.5 186.1406,27.2656 Q185.875,27.0313 185.875,26.6406 Q185.875,26.2656 186.1563,26.0313 Q186.4219,25.7813 187.0469,25.7969 L189.7188,19.1406 L188.6094,19.1406 Q188,19.1406 187.7344,18.9063 Q187.4688,18.6719 187.4688,18.2813 Q187.4688,17.9063 187.7344,17.6719 Q188,17.4375 188.6094,17.4375 L192.2813,17.4375 L195.6719,25.7969 Q196.2656,25.7969 196.4531,25.9375 Q196.8438,26.2031 196.8438,26.6563 Q196.8438,27.0313 196.5781,27.2656 Q196.3281,27.5 195.7188,27.5 L193.4219,27.5 Q192.8125,27.5 192.5469,27.2656 Q192.2813,27.0313 192.2813,26.6406 Q192.2813,26.2656 192.5469,26.0313 Q192.8125,25.7969 193.4219,25.7969 L193.8438,25.7969 L193.4375,24.7656 Z M192.7188,23.0625 L191.3594,19.6875 L189.9844,23.0625 L192.7188,23.0625 Z " fill="#000000"/><text fill="#000000" font-family="sans-serif" font-size="14" font-style="italic" lengthAdjust="spacing" textLength="41" x="211.75" y="28.7285">Figura</text><line style="stroke:#181818;stroke-width:0.5;" x1="140" x2="292" y1="39" y2="39"/><rect fill="none" height="6" style="stroke:#C82930;stroke-width:1.0;" width="6" x="147" y="50.3047"/><text fill="#000000" font-family="sans-serif" font-size="14" lengthAdjust="spacing" textLength="68" x="159" y="57.5332">tipo: String</text><line style="stroke:#181818;stroke-width:0.5;" x1="140" x2="292" y1="64.6094" y2="64.6094"/><ellipse cx="150" cy="78.9141" fill="#84BE84" rx="3" ry="3" style="stroke:#038048;stroke-width:1.0;"/><text fill="#000000" font-family="sans-serif" font-size="14" lengthAdjust="spacing" textLength="103" x="159" y="83.1426">getTipo(): String</text><ellipse cx="150" cy="96.5234" fill="#84BE84" rx="3" ry="3" style="stroke:#038048;stroke-width:1.0;"/><text fill="#000000" font-family="sans-serif" font-size="14" lengthAdjust="spacing" textLength="128" x="159" y="100.752">setTipo(String): void</text><ellipse cx="150" cy="114.1328" fill="#84BE84" rx="3" ry="3" style="stroke:#038048;stroke-width:1.0;"/><text fill="#000000" font-family="sans-serif" font-size="14" font-style="italic" lengthAdjust="spacing" textLength="90" x="159" y="118.3613">area(): double</text></g><!--class Triangulo--><g id="elem_Triangulo"><rect codeLine="25" fill="#F1F1F1" height="136.0469" id="Triangulo" rx="2.5" ry="2.5" style="stroke:#181818;stroke-width:0.5;" width="116" x="7" y="185"/><ellipse cx="32.8" cy="201" fill="#ADD1B2" rx="11" ry="11" style="stroke:#181818;stroke-width:1.0;"/><path d="M35.5656,196.875 Q35.7219,196.6563 35.9094,196.5469 Q36.0969,196.4375 36.3156,196.4375 Q36.6906,196.4375 36.925,196.7031 Q37.1594,196.9531 37.1594,197.5625 L37.1594,199.0156 Q37.1594,199.625 36.925,199.8906 Q36.6906,200.1563 36.3156,200.1563 Q35.9719,200.1563 35.7688,199.9531 Q35.5656,199.7656 35.4563,199.25 Q35.4094,198.8906 35.2219,198.7031 Q34.8938,198.3281 34.2844,198.1094 Q33.675,197.8906 33.05,197.8906 Q32.2844,197.8906 31.6437,198.2188 Q31.0187,198.5469 30.5187,199.2969 Q30.0344,200.0469 30.0344,201.0781 L30.0344,202.1719 Q30.0344,203.4063 30.925,204.2344 Q31.8156,205.0469 33.4094,205.0469 Q34.3469,205.0469 35.0031,204.7969 Q35.3938,204.6406 35.8156,204.2031 Q36.0813,203.9375 36.2219,203.8594 Q36.3781,203.7813 36.5813,203.7813 Q36.9094,203.7813 37.1594,204.0469 Q37.425,204.2969 37.425,204.6406 Q37.425,204.9844 37.0813,205.3906 Q36.5813,205.9688 35.7844,206.2969 Q34.7063,206.75 33.4094,206.75 Q31.8937,206.75 30.6906,206.125 Q29.7062,205.625 29.0187,204.5625 Q28.3312,203.4844 28.3312,202.2031 L28.3312,201.0469 Q28.3312,199.7188 28.9406,198.5781 Q29.5656,197.4219 30.6594,196.8125 Q31.7531,196.1875 32.9875,196.1875 Q33.7219,196.1875 34.3625,196.3594 Q35.0188,196.5156 35.5656,196.875 Z " fill="#000000"/><text fill="#000000" font-family="sans-serif" font-size="14" lengthAdjust="spacing" textLength="60" x="49.2" y="206.7285">Triangulo</text><line style="stroke:#181818;stroke-width:0.5;" x1="8" x2="122" y1="217" y2="217"/><rect fill="none" height="6" style="stroke:#C82930;stroke-width:1.0;" width="6" x="15" y="228.3047"/><text fill="#000000" font-family="sans-serif" font-size="14" lengthAdjust="spacing" textLength="54" x="27" y="235.5332">base: int</text><rect fill="none" height="6" style="stroke:#C82930;stroke-width:1.0;" width="6" x="15" y="245.9141"/><text fill="#000000" font-family="sans-serif" font-size="14" lengthAdjust="spacing" textLength="59" x="27" y="253.1426">altura: int</text><line style="stroke:#181818;stroke-width:0.5;" x1="8" x2="122" y1="260.2188" y2="260.2188"/><ellipse cx="18" cy="274.5234" fill="#84BE84" rx="3" ry="3" style="stroke:#038048;stroke-width:1.0;"/><text fill="#000000" font-family="sans-serif" font-size="14" lengthAdjust="spacing" textLength="85" x="27" y="278.752">getBase(): int</text><ellipse cx="18" cy="292.1328" fill="#84BE84" rx="3" ry="3" style="stroke:#038048;stroke-width:1.0;"/><text fill="#000000" font-family="sans-serif" font-size="14" lengthAdjust="spacing" textLength="90" x="27" y="296.3613">getAltura(): int</text><ellipse cx="18" cy="309.7422" fill="#84BE84" rx="3" ry="3" style="stroke:#038048;stroke-width:1.0;"/><text fill="#000000" font-family="sans-serif" font-size="14" lengthAdjust="spacing" textLength="90" x="27" y="313.9707">area(): double</text></g><!--class Cuadrado--><g id="elem_Cuadrado"><rect codeLine="33" fill="#F1F1F1" height="100.8281" id="Cuadrado" rx="2.5" ry="2.5" style="stroke:#181818;stroke-width:0.5;" width="116" x="158" y="202.5"/><ellipse cx="182.45" cy="218.5" fill="#ADD1B2" rx="11" ry="11" style="stroke:#181818;stroke-width:1.0;"/><path d="M185.2156,214.375 Q185.3719,214.1563 185.5594,214.0469 Q185.7469,213.9375 185.9656,213.9375 Q186.3406,213.9375 186.575,214.2031 Q186.8094,214.4531 186.8094,215.0625 L186.8094,216.5156 Q186.8094,217.125 186.575,217.3906 Q186.3406,217.6563 185.9656,217.6563 Q185.6219,217.6563 185.4188,217.4531 Q185.2156,217.2656 185.1063,216.75 Q185.0594,216.3906 184.8719,216.2031 Q184.5438,215.8281 183.9344,215.6094 Q183.325,215.3906 182.7,215.3906 Q181.9344,215.3906 181.2938,215.7188 Q180.6688,216.0469 180.1688,216.7969 Q179.6844,217.5469 179.6844,218.5781 L179.6844,219.6719 Q179.6844,220.9063 180.575,221.7344 Q181.4656,222.5469 183.0594,222.5469 Q183.9969,222.5469 184.6531,222.2969 Q185.0438,222.1406 185.4656,221.7031 Q185.7313,221.4375 185.8719,221.3594 Q186.0281,221.2813 186.2313,221.2813 Q186.5594,221.2813 186.8094,221.5469 Q187.075,221.7969 187.075,222.1406 Q187.075,222.4844 186.7313,222.8906 Q186.2313,223.4688 185.4344,223.7969 Q184.3563,224.25 183.0594,224.25 Q181.5438,224.25 180.3406,223.625 Q179.3563,223.125 178.6688,222.0625 Q177.9813,220.9844 177.9813,219.7031 L177.9813,218.5469 Q177.9813,217.2188 178.5906,216.0781 Q179.2156,214.9219 180.3094,214.3125 Q181.4031,213.6875 182.6375,213.6875 Q183.3719,213.6875 184.0125,213.8594 Q184.6688,214.0156 185.2156,214.375 Z " fill="#000000"/><text fill="#000000" font-family="sans-serif" font-size="14" lengthAdjust="spacing" textLength="63" x="198.55" y="224.2285">Cuadrado</text><line style="stroke:#181818;stroke-width:0.5;" x1="159" x2="273" y1="234.5" y2="234.5"/><rect fill="none" height="6" style="stroke:#C82930;stroke-width:1.0;" width="6" x="166" y="245.8047"/><text fill="#000000" font-family="sans-serif" font-size="14" lengthAdjust="spacing" textLength="50" x="178" y="253.0332">lado: int</text><line style="stroke:#181818;stroke-width:0.5;" x1="159" x2="273" y1="260.1094" y2="260.1094"/><ellipse cx="169" cy="274.4141" fill="#84BE84" rx="3" ry="3" style="stroke:#038048;stroke-width:1.0;"/><text fill="#000000" font-family="sans-serif" font-size="14" lengthAdjust="spacing" textLength="85" x="178" y="278.6426">getLado(): int</text><ellipse cx="169" cy="292.0234" fill="#84BE84" rx="3" ry="3" style="stroke:#038048;stroke-width:1.0;"/><text fill="#000000" font-family="sans-serif" font-size="14" lengthAdjust="spacing" textLength="90" x="178" y="296.252">area(): double</text></g><!--class Ovalo--><g id="elem_Ovalo"><rect codeLine="39" fill="#F1F1F1" height="136.0469" id="Ovalo" rx="2.5" ry="2.5" style="stroke:#181818;stroke-width:0.5;" width="116" x="309" y="185"/><ellipse cx="345.15" cy="201" fill="#ADD1B2" rx="11" ry="11" style="stroke:#181818;stroke-width:1.0;"/><path d="M347.9156,196.875 Q348.0719,196.6563 348.2594,196.5469 Q348.4469,196.4375 348.6656,196.4375 Q349.0406,196.4375 349.275,196.7031 Q349.5094,196.9531 349.5094,197.5625 L349.5094,199.0156 Q349.5094,199.625 349.275,199.8906 Q349.0406,200.1563 348.6656,200.1563 Q348.3219,200.1563 348.1188,199.9531 Q347.9156,199.7656 347.8063,199.25 Q347.7594,198.8906 347.5719,198.7031 Q347.2438,198.3281 346.6344,198.1094 Q346.025,197.8906 345.4,197.8906 Q344.6344,197.8906 343.9938,198.2188 Q343.3688,198.5469 342.8688,199.2969 Q342.3844,200.0469 342.3844,201.0781 L342.3844,202.1719 Q342.3844,203.4063 343.275,204.2344 Q344.1656,205.0469 345.7594,205.0469 Q346.6969,205.0469 347.3531,204.7969 Q347.7438,204.6406 348.1656,204.2031 Q348.4313,203.9375 348.5719,203.8594 Q348.7281,203.7813 348.9313,203.7813 Q349.2594,203.7813 349.5094,204.0469 Q349.775,204.2969 349.775,204.6406 Q349.775,204.9844 349.4313,205.3906 Q348.9313,205.9688 348.1344,206.2969 Q347.0563,206.75 345.7594,206.75 Q344.2438,206.75 343.0406,206.125 Q342.0563,205.625 341.3688,204.5625 Q340.6813,203.4844 340.6813,202.2031 L340.6813,201.0469 Q340.6813,199.7188 341.2906,198.5781 Q341.9156,197.4219 343.0094,196.8125 Q344.1031,196.1875 345.3375,196.1875 Q346.0719,196.1875 346.7125,196.3594 Q347.3688,196.5156 347.9156,196.875 Z " fill="#000000"/><text fill="#000000" font-family="sans-serif" font-size="14" lengthAdjust="spacing" textLength="37" x="363.85" y="206.7285">Ovalo</text><line style="stroke:#181818;stroke-width:0.5;" x1="310" x2="424" y1="217" y2="217"/><rect fill="none" height="6" style="stroke:#C82930;stroke-width:1.0;" width="6" x="317" y="228.3047"/><text fill="#000000" font-family="sans-serif" font-size="14" lengthAdjust="spacing" textLength="36" x="329" y="235.5332">r1: int</text><rect fill="none" height="6" style="stroke:#C82930;stroke-width:1.0;" width="6" x="317" y="245.9141"/><text fill="#000000" font-family="sans-serif" font-size="14" lengthAdjust="spacing" textLength="36" x="329" y="253.1426">r2: int</text><line style="stroke:#181818;stroke-width:0.5;" x1="310" x2="424" y1="260.2188" y2="260.2188"/><ellipse cx="320" cy="274.5234" fill="#84BE84" rx="3" ry="3" style="stroke:#038048;stroke-width:1.0;"/><text fill="#000000" font-family="sans-serif" font-size="14" lengthAdjust="spacing" textLength="71" x="329" y="278.752">getR1(): int</text><ellipse cx="320" cy="292.1328" fill="#84BE84" rx="3" ry="3" style="stroke:#038048;stroke-width:1.0;"/><text fill="#000000" font-family="sans-serif" font-size="14" lengthAdjust="spacing" textLength="71" x="329" y="296.3613">getR2(): int</text><ellipse cx="320" cy="309.7422" fill="#84BE84" rx="3" ry="3" style="stroke:#038048;stroke-width:1.0;"/><text fill="#000000" font-family="sans-serif" font-size="14" lengthAdjust="spacing" textLength="90" x="329" y="313.9707">area(): double</text></g><!--reverse link Figura to Triangulo--><g id="link_Figura_Triangulo"><path codeLine="47" d="M157.2597,138.976 C141.7797,157.946 135.83,165.22 119.85,184.81 " fill="none" id="Figura-backto-Triangulo" style="stroke:#181818;stroke-width:1.0;"/><polygon fill="none" points="168.64,125.03,152.6111,135.1825,161.9084,142.7694,168.64,125.03" style="stroke:#181818;stroke-width:1.0;"/></g><!--reverse link Figura to Cuadrado--><g id="link_Figura_Cuadrado"><path codeLine="48" d="M216,143.03 C216,167.82 216,178.48 216,202.28 " fill="none" id="Figura-backto-Cuadrado" style="stroke:#181818;stroke-width:1.0;"/><polygon fill="none" points="216,125.03,210,143.03,222,143.03,216,125.03" style="stroke:#181818;stroke-width:1.0;"/></g><!--reverse link Figura to Ovalo--><g id="link_Figura_Ovalo"><path codeLine="49" d="M274.7403,138.976 C290.2203,157.946 296.17,165.22 312.15,184.81 " fill="none" id="Figura-backto-Ovalo" style="stroke:#181818;stroke-width:1.0;"/><polygon fill="none" points="263.36,125.03,270.0916,142.7694,279.3889,135.1825,263.36,125.03" style="stroke:#181818;stroke-width:1.0;"/></g><!--SRC=[ZP3B2i8m44Nt-OfPAjA5NHOtAhWIXDeVc3u8WT187jtK_hlJDBMDeBZBd9dSUsUmD5PZPQ6IQ0nS17SQeMS02LZnK1dShHOj9x03tjY2s6ORKHFeXAZNAL5JfyUWFT0GwWR7VxLofMpOmDXaM6Y1BNTI1SyIJPE1QAslK5gACzS-m8a6Hg4LElgfDVpcTdPOQwndCqdFIEbAu1-TMuVln7g_vDLf99VlFvBcwM_rSFx3CqcMoqHqtY22FWvx0G00]--></g></svg>